<?xml version="1.0" encoding="UTF-8" standalone="no"?>
<!DOCTYPE svg PUBLIC "-//W3C//DTD SVG 1.1//EN"
 "http://www.w3.org/Graphics/SVG/1.1/DTD/svg11.dtd">
<!-- Generated by graphviz version 12.2.0 (20241103.1931)
 -->
<!-- Pages: 1 -->
<svg width="104pt" height="45pt"
 viewBox="0.00 0.00 104.00 45.00" xmlns="http://www.w3.org/2000/svg" xmlns:xlink="http://www.w3.org/1999/xlink">
<g id="graph0" class="graph" transform="scale(1 1) rotate(0) translate(4 41)">
<polygon fill="white" stroke="none" points="-4,4 -4,-41 100,-41 100,4 -4,4"/>
<!-- 824634289216 -->
<g id="node1" class="node">
<title>824634289216</title>
<path fill="lightblue" stroke="lightblue" d="M12,-0.5C12,-0.5 84,-0.5 84,-0.5 90,-0.5 96,-6.5 96,-12.5 96,-12.5 96,-24.5 96,-24.5 96,-30.5 90,-36.5 84,-36.5 84,-36.5 12,-36.5 12,-36.5 6,-36.5 0,-30.5 0,-24.5 0,-24.5 0,-12.5 0,-12.5 0,-6.5 6,-0.5 12,-0.5"/>
<text text-anchor="middle" x="9.88" y="-13.45" font-family="Times New Roman,serif" font-size="14.00"> </text>
<polyline fill="none" stroke="lightblue" points="19.75,-0.5 19.75,-36.5"/>
<text text-anchor="middle" x="48" y="-13.45" font-family="Times New Roman,serif" font-size="14.00">118361</text>
<polyline fill="none" stroke="lightblue" points="76.25,-0.5 76.25,-36.5"/>
<text text-anchor="middle" x="86.12" y="-13.45" font-family="Times New Roman,serif" font-size="14.00"> </text>
</g>
</g>
</svg>
